<svg id="Calque_1" data-name="Calque 1" xmlns="http://www.w3.org/2000/svg" viewBox="0 0 917.48 161.74"><defs><style>.cls-1{fill:#74faaa;}.cls-2{fill:#fff;}</style></defs><title>titre</title><polygon class="cls-1" points="244.79 0.72 227.88 0.72 217.97 40.6 267.65 40.6 269.98 28.84 238.31 28.84 244.79 0.72"/><polygon class="cls-1" points="329.6 0.72 280.59 0.72 272.93 40.6 324.54 40.6 325.97 30.31 292.11 30.31 293.08 24.76 325.58 24.76 326.93 15.07 294.76 15.07 295.62 10.17 328.28 10.17 329.6 0.72"/><path class="cls-1" d="M386.46,0h-2.32a62.82,62.82,0,0,0-16.73,1.94,27.49,27.49,0,0,0-10,4.85,17.84,17.84,0,0,0-5,6.3,19.68,19.68,0,0,0-1.73,6.24l-.18,1.56a17.73,17.73,0,0,0,.37,6.37,14.45,14.45,0,0,0,3.79,6.68,22.13,22.13,0,0,0,9.31,5.3,56.64,56.64,0,0,0,16.88,2.16h2.42a65.28,65.28,0,0,0,16.9-1.92,28.74,28.74,0,0,0,10-4.6,16,16,0,0,0,4.77-5.55,12,12,0,0,0,1.32-4.83l0-.87H398.29a6.07,6.07,0,0,1-.65,1.42,7.91,7.91,0,0,1-2.15,2.23,14,14,0,0,1-4.62,2.07,31.28,31.28,0,0,1-8.06.91,25.54,25.54,0,0,1-7.5-1,11.39,11.39,0,0,1-4.47-2.44,7.6,7.6,0,0,1-2.08-3.24,8.34,8.34,0,0,1-.35-3.37l.06-.64a9.2,9.2,0,0,1,.93-3.32,8.36,8.36,0,0,1,2.55-3,13.61,13.61,0,0,1,4.77-2.12,31.1,31.1,0,0,1,7.62-.82,32.12,32.12,0,0,1,7.68.79A12.46,12.46,0,0,1,396.26,13a6.23,6.23,0,0,1,1.88,2,5.7,5.7,0,0,1,.54,1.39h17.86l0-.69a10.8,10.8,0,0,0-.84-4.62,12.88,12.88,0,0,0-4.08-5.17,24.81,24.81,0,0,0-9.14-4.19A64.21,64.21,0,0,0,386.46,0"/><path class="cls-1" d="M440,23.79l7.61-13.62,7.47,13.62ZM459.41.72H436.66L412.86,40.6h17.89l3.71-6.66h26.21l3.62,6.66H483.6L459.41.72"/><polygon class="cls-1" points="546.53 0.72 529.68 0.72 530.73 14.44 502.63 14.44 501.99 0.72 485.08 0.72 486.21 40.6 503.85 40.6 503.12 25.03 531.54 25.03 532.73 40.6 550.31 40.6 546.53 0.72"/><polygon class="cls-1" points="569.69 0.72 552.84 0.72 556.88 40.6 574.46 40.6 569.69 0.72"/><polygon class="cls-1" points="625.02 0.72 576.01 0.72 581.05 40.6 632.66 40.6 630.81 30.31 596.95 30.31 596.15 24.76 628.65 24.76 626.92 15.07 594.75 15.07 594.04 10.17 626.71 10.17 625.02 0.72"/><path class="cls-1" d="M651.18,16.88l-1.38-6.76h19.61a10.87,10.87,0,0,1,2.49.26,5.81,5.81,0,0,1,1.76.71,3.84,3.84,0,0,1,1.12,1.05,3.71,3.71,0,0,1,.57,1.3v.05a2.94,2.94,0,0,1,0,1.33,2,2,0,0,1-.65,1.08,3.51,3.51,0,0,1-1.45.72,9.19,9.19,0,0,1-2.36.26H651.18M671.23.72H631l7.4,39.88H656l-2.86-14.05H669.8a19.43,19.43,0,0,1,4.44.45,9.35,9.35,0,0,1,3.16,1.33,7.09,7.09,0,0,1,2.08,2.21,10.35,10.35,0,0,1,1.19,3.08l1.11,4.82c.07.29.13.55.2.77a4.36,4.36,0,0,0,.23.59,2.44,2.44,0,0,0,.28.45,2.25,2.25,0,0,0,.35.36h18l-.07-.28a6.68,6.68,0,0,1-.48-.63,7.21,7.21,0,0,1-.5-.9,12.19,12.19,0,0,1-.52-1.3c-.18-.52-.35-1.12-.53-1.84l-1.51-6a11.36,11.36,0,0,0-1.56-3.55,12,12,0,0,0-2.59-2.78,15.14,15.14,0,0,0-3.43-2A20.13,20.13,0,0,0,685.56,20a13.26,13.26,0,0,0,2.65-.87,9.44,9.44,0,0,0,2.56-1.66,6,6,0,0,0,1.68-2.6,6.69,6.69,0,0,0,0-3.68l-.14-.58a10.22,10.22,0,0,0-2.15-4.23A12.64,12.64,0,0,0,686,3.3a23.85,23.85,0,0,0-6.27-1.92,49.34,49.34,0,0,0-8.52-.66"/><path class="cls-1" d="M131.4,77.93l6.77-20.78H151.5a32.44,32.44,0,0,1,9,1A9.28,9.28,0,0,1,165,60.72,5.37,5.37,0,0,1,166.34,64a9.25,9.25,0,0,1-.43,3.19l-.1.35A11.88,11.88,0,0,1,161,74.17a19,19,0,0,1-6.14,2.67A39.51,39.51,0,0,1,145,77.93H131.4M157,46h-33L108.95,90h34.53a74,74,0,0,0,18.26-2,38.62,38.62,0,0,0,12.11-5.19,26.1,26.1,0,0,0,7.16-7,25.67,25.67,0,0,0,3.48-7.62l.49-1.77a17.56,17.56,0,0,0,.58-7.53,11.35,11.35,0,0,0-3.48-6.5,20.6,20.6,0,0,0-9-4.56A62.79,62.79,0,0,0,157,46"/><polygon class="cls-1" points="246.85 45.99 195.45 45.99 183.56 89.96 237.8 89.96 240.27 78.6 204.71 78.6 206.25 72.47 240.38 72.47 242.71 61.79 208.95 61.79 210.31 56.39 244.59 56.39 246.85 45.99"/><polygon class="cls-1" points="337.72 45.99 319.3 45.99 299.83 76.25 289 45.99 268.89 45.99 284.86 89.96 309.48 89.96 337.72 45.99"/><path class="cls-1" d="M352,71.41l9.3-15,6.53,15ZM374.57,46H350.71l-28.9,44h18.8l4.55-7.36H372.7L375.86,90h20.3L374.57,46"/><path class="cls-1" d="M430.92,45.2h-2.43A61.92,61.92,0,0,0,411,47.34a26.82,26.82,0,0,0-10.26,5.33,18.35,18.35,0,0,0-5,6.94,21.89,21.89,0,0,0-1.52,6.88l-.11,1.71a20.73,20.73,0,0,0,.7,7,17.09,17.09,0,0,0,4.31,7.37,24.38,24.38,0,0,0,10,5.85,57.86,57.86,0,0,0,17.85,2.38h2.54a64.34,64.34,0,0,0,17.66-2.12,28,28,0,0,0,10.25-5.07,16.37,16.37,0,0,0,4.72-6.12,13.42,13.42,0,0,0,1.13-5.33v-1H444.54a6.53,6.53,0,0,1-.61,1.56,8,8,0,0,1-2.14,2.46A13.67,13.67,0,0,1,437,77.53a30.77,30.77,0,0,1-8.42,1,26.1,26.1,0,0,1-7.93-1.07,12.5,12.5,0,0,1-4.82-2.69,8.94,8.94,0,0,1-2.35-3.57,9.8,9.8,0,0,1-.53-3.71l0-.71a10.21,10.21,0,0,1,.81-3.66,8.53,8.53,0,0,1,2.53-3.26,13.26,13.26,0,0,1,4.9-2.34,30.7,30.7,0,0,1,8-.9,32.67,32.67,0,0,1,8.1.87,13.42,13.42,0,0,1,4.56,2,7.24,7.24,0,0,1,2.08,2.23,6.7,6.7,0,0,1,.64,1.53h18.75V62.5a12.74,12.74,0,0,0-1.12-5.09,15.08,15.08,0,0,0-4.55-5.69,26.93,26.93,0,0,0-9.8-4.61,65.44,65.44,0,0,0-16.93-1.9"/><path class="cls-1" d="M488.36,71.41l7.26-15,8.57,15ZM507.47,46H483.61l-22.9,44h18.8l3.54-7.36H510.6L514.77,90h20.3L507.47,46"/><polygon class="cls-1" points="598.84 45.99 581.23 45.99 584.32 70.51 554.25 45.99 534.39 45.99 537.81 89.96 556.21 89.96 553.61 62.85 586.63 89.96 605.17 89.96 598.84 45.99"/><path class="cls-1" d="M639,45.2h-2.43c-7.24,0-12.77.8-17,2.13a20.5,20.5,0,0,0-9.12,5.33A13.92,13.92,0,0,0,607,59.61a20.44,20.44,0,0,0,0,6.88l.26,1.71a23.43,23.43,0,0,0,2.2,7,22.9,22.9,0,0,0,5.88,7.37,31.88,31.88,0,0,0,11.29,5.85A63,63,0,0,0,645,90.82h2.54A59.41,59.41,0,0,0,664.7,88.7a21.56,21.56,0,0,0,9.16-5.07,12.3,12.3,0,0,0,3.41-6.12,12.61,12.61,0,0,0,0-5.33l-.21-1H658.22a5.64,5.64,0,0,1-.28,1.56,5.92,5.92,0,0,1-1.62,2.46,10.57,10.57,0,0,1-4.26,2.28,32.82,32.82,0,0,1-16.36-.06,16.25,16.25,0,0,1-5.4-2.69,12.12,12.12,0,0,1-3.11-3.57,11.37,11.37,0,0,1-1.33-3.71l-.12-.71a9.52,9.52,0,0,1,0-3.66,6.41,6.41,0,0,1,1.83-3.26,10.26,10.26,0,0,1,4.4-2.34,28.47,28.47,0,0,1,7.76-.9,35,35,0,0,1,8.28.87,16.89,16.89,0,0,1,5,2,9.93,9.93,0,0,1,2.55,2.23,8.71,8.71,0,0,1,1,1.53h18.75l-.17-.76a15.3,15.3,0,0,0-2.21-5.09,20.62,20.62,0,0,0-5.77-5.69,34.21,34.21,0,0,0-10.79-4.61A70.35,70.35,0,0,0,639,45.2"/><polygon class="cls-1" points="727.81 45.99 676.41 45.99 686.24 89.96 740.49 89.96 737.34 78.6 701.77 78.6 700.29 72.47 734.42 72.47 731.48 61.79 697.71 61.79 696.41 56.39 730.68 56.39 727.81 45.99"/><path class="cls-1" d="M764.67,45.26h-5.55a67.32,67.32,0,0,0-13,1,19.14,19.14,0,0,0-7.37,2.82,7.11,7.11,0,0,0-3,4.13,9.78,9.78,0,0,0,.27,5l.15.53a13.88,13.88,0,0,0,2.4,4.8,16.18,16.18,0,0,0,4.86,4.1,29,29,0,0,0,8,2.94,61.27,61.27,0,0,0,11.84,1.32l8.93.24a60.82,60.82,0,0,1,6.11.43,16.52,16.52,0,0,1,3.66.83,4.83,4.83,0,0,1,1.91,1.2,4.06,4.06,0,0,1,.85,1.55l0,.06a2.73,2.73,0,0,1,.12,1.57,2.27,2.27,0,0,1-1.2,1.35,9.73,9.73,0,0,1-3.26.94,41.76,41.76,0,0,1-6.06.36h-.59a28.41,28.41,0,0,1-6.47-.65,13.52,13.52,0,0,1-4.08-1.62A8.3,8.3,0,0,1,761,76.14a8.12,8.12,0,0,1-1.09-2h-20l.17.6a17.35,17.35,0,0,0,2.24,4.95,18.64,18.64,0,0,0,5.36,5.24,31.78,31.78,0,0,0,10.11,4.18,69.92,69.92,0,0,0,16.46,1.7h5.95a68.41,68.41,0,0,0,15-1.36c3.73-.86,6.27-2.08,7.94-3.54A7.51,7.51,0,0,0,805.73,81a12.88,12.88,0,0,0-.82-5.57l-.29-.84a16.1,16.1,0,0,0-3.38-5.79,17.41,17.41,0,0,0-5.76-4,34.87,34.87,0,0,0-8.56-2.43,85.83,85.83,0,0,0-11.8-1l-8.56-.18a52.1,52.1,0,0,1-5.46-.35,15.92,15.92,0,0,1-3.33-.72,4.72,4.72,0,0,1-1.76-1,2.79,2.79,0,0,1-.72-1.23l0-.06a2,2,0,0,1-.07-1.21,1.78,1.78,0,0,1,1-1,9.79,9.79,0,0,1,2.9-.7,46.48,46.48,0,0,1,5.49-.26h.63a33.71,33.71,0,0,1,6.18.49,13.92,13.92,0,0,1,3.77,1.2,6.63,6.63,0,0,1,2,1.5,5.24,5.24,0,0,1,.87,1.38h19.56l-.16-.47a14.61,14.61,0,0,0-2.9-5,18.69,18.69,0,0,0-5.8-4.3,36.37,36.37,0,0,0-9.65-3,81.08,81.08,0,0,0-14.47-1.14"/><polygon class="cls-2" points="59.67 95.87 27.2 95.87 0 160.35 34.52 160.35 59.67 95.87"/><polygon class="cls-2" points="180.22 95.87 139.35 95.87 114.69 123.59 108.77 95.87 65.84 95.87 41.08 160.35 75.42 160.35 87 127.47 93.54 160.35 110.03 160.35 138.23 127.47 128.24 160.35 162.67 160.35 180.22 95.87"/><path class="cls-2" d="M212.76,122.3l2-8.34h23.19a10.34,10.34,0,0,1,2.76.31,3.66,3.66,0,0,1,1.62.86,2.37,2.37,0,0,1,.68,1.29,4.17,4.17,0,0,1-.05,1.6l0,.17a4.83,4.83,0,0,1-.59,1.54,4.43,4.43,0,0,1-1.22,1.31,6.12,6.12,0,0,1-2,.91,11.31,11.31,0,0,1-2.92.34H212.76m37-26.43H186.39l-17.16,64.48h34.61L208.15,142H240.3a62.66,62.66,0,0,0,16.19-1.88,32.44,32.44,0,0,0,10.93-5,23.18,23.18,0,0,0,6.51-7.26,26.3,26.3,0,0,0,3-8.58l.39-2.21a21.42,21.42,0,0,0,0-8.32A12.78,12.78,0,0,0,273.5,102a20.52,20.52,0,0,0-8.8-4.48,58.15,58.15,0,0,0-15-1.63"/><path class="cls-2" d="M330.16,140.1a28.89,28.89,0,0,1-8.84-1.2,13.82,13.82,0,0,1-5.42-3.07,9.6,9.6,0,0,1-2.58-4.15,10.39,10.39,0,0,1-.33-4.45l.14-1a11.53,11.53,0,0,1,1.46-4.23,12.43,12.43,0,0,1,3.52-3.82,18.46,18.46,0,0,1,6.06-2.76,35,35,0,0,1,9.1-1.06,31.87,31.87,0,0,1,8.78,1.06,14.28,14.28,0,0,1,5.43,2.76,9,9,0,0,1,2.67,3.82,9.62,9.62,0,0,1,.48,4.23l-.12,1.21a11.83,11.83,0,0,1-1.39,4.47,13,13,0,0,1-3.56,4.09,18.49,18.49,0,0,1-6.18,3,33.27,33.27,0,0,1-9.21,1.16m7.7-45.45h-4.28c-10.76,0-19.39,1.09-26.33,2.93A46.53,46.53,0,0,0,291,105a30.57,30.57,0,0,0-8.72,10,34.43,34.43,0,0,0-3.53,10.57l-.44,2.59a30.32,30.32,0,0,0-.06,10.78,21.49,21.49,0,0,0,5.52,10.86c3.17,3.37,7.84,6.33,14.59,8.44s15.6,3.4,27,3.4h4.56c11.45,0,20.6-1.28,27.88-3.4a44.54,44.54,0,0,0,16.62-8.44A29.34,29.34,0,0,0,382.53,139a32.91,32.91,0,0,0,2.53-10.78l.18-2.59a29.86,29.86,0,0,0-1-10.57,21.82,21.82,0,0,0-6.3-10c-3.29-3-8-5.62-14.47-7.47s-14.87-2.93-25.63-2.93"/><path class="cls-2" d="M442.17,94.81H431.3a125.66,125.66,0,0,0-19.37,1.27,44.32,44.32,0,0,0-12.67,3.67,17.63,17.63,0,0,0-7.08,5.88,15.78,15.78,0,0,0-2.52,7.9l-.05.76a18.16,18.16,0,0,0,.82,7.21,13.92,13.92,0,0,0,4.49,6.3,26.16,26.16,0,0,0,9.73,4.63,72.79,72.79,0,0,0,16.51,2.2l13.95.44a53.38,53.38,0,0,1,6.71.6,13,13,0,0,1,3.68,1.07,3.27,3.27,0,0,1,1.54,1.4,3.38,3.38,0,0,1,.3,1.61V140a3.25,3.25,0,0,1-.51,1.74,4.45,4.45,0,0,1-1.68,1.48,10.72,10.72,0,0,1-3.16,1,27.3,27.3,0,0,1-4.94.39,18.69,18.69,0,0,1-5.58-.71,7.63,7.63,0,0,1-3.15-1.79,5.37,5.37,0,0,1-1.38-2.31,7.25,7.25,0,0,1-.27-2.3H387l0,.71a19.66,19.66,0,0,0,.72,7.22,16.17,16.17,0,0,0,5.23,7.66c2.87,2.41,7.06,4.56,13.09,6.11s14,2.5,24.24,2.5h11.95a115.44,115.44,0,0,0,23.5-2c6.12-1.29,10.66-3.14,14-5.35a17.87,17.87,0,0,0,6.64-7.53,19.33,19.33,0,0,0,1.55-8.58l0-1.24a18.94,18.94,0,0,0-2-8.61,15.42,15.42,0,0,0-6-6,34,34,0,0,0-10.69-3.67A99.87,99.87,0,0,0,453,117.18l-13.11-.34c-2.51-.06-4.55-.19-6.2-.38a19.16,19.16,0,0,1-3.83-.76,4.3,4.3,0,0,1-1.93-1.14,2.13,2.13,0,0,1-.51-1.52v-.17a2.56,2.56,0,0,1,.4-1.4,2.94,2.94,0,0,1,1.4-1,11.25,11.25,0,0,1,2.87-.63,44,44,0,0,1,4.8-.21,22.25,22.25,0,0,1,5.13.5,8,8,0,0,1,2.92,1.26,4.22,4.22,0,0,1,1.36,1.64,5.36,5.36,0,0,1,.43,1.65h38v-.42a15.64,15.64,0,0,0-2-7.59,16.65,16.65,0,0,0-6.65-6.16,41.92,41.92,0,0,0-13-4.13,123.43,123.43,0,0,0-21-1.51"/><path class="cls-2" d="M541.64,94.81H530.77a123.2,123.2,0,0,0-19.25,1.27,40.94,40.94,0,0,0-12.31,3.67,15.32,15.32,0,0,0-6.5,5.88,14.69,14.69,0,0,0-1.75,7.9l0,.76a19,19,0,0,0,1.52,7.21,16,16,0,0,0,5.1,6.3,29.23,29.23,0,0,0,10.18,4.63,75.64,75.64,0,0,0,16.72,2.2l14,.44a54.82,54.82,0,0,1,6.77.6,14.12,14.12,0,0,1,3.78,1.07,3.76,3.76,0,0,1,1.67,1.4,3.59,3.59,0,0,1,.46,1.61l0,.26a3,3,0,0,1-.34,1.74,3.85,3.85,0,0,1-1.54,1.48,9.81,9.81,0,0,1-3.06,1,26.68,26.68,0,0,1-4.9.39,19.4,19.4,0,0,1-5.64-.71,8.63,8.63,0,0,1-3.33-1.79,6.13,6.13,0,0,1-1.61-2.31,7.59,7.59,0,0,1-.5-2.3H490.62l0,.71a20.48,20.48,0,0,0,1.42,7.22,18.51,18.51,0,0,0,6,7.66c3.11,2.41,7.5,4.56,13.69,6.11s14.2,2.5,24.48,2.5h12a112.45,112.45,0,0,0,23.3-2c6-1.29,10.36-3.14,13.47-5.35a15.55,15.55,0,0,0,5.91-7.53,18.62,18.62,0,0,0,.72-8.58L591.4,137a20.44,20.44,0,0,0-2.88-8.61,17.8,17.8,0,0,0-6.61-6,37.15,37.15,0,0,0-11-3.67,102.68,102.68,0,0,0-16.22-1.52l-13.15-.34c-2.52-.06-4.57-.19-6.24-.38a20.26,20.26,0,0,1-3.91-.76,4.87,4.87,0,0,1-2-1.14,2.33,2.33,0,0,1-.65-1.52v-.17a2.4,2.4,0,0,1,.26-1.4,2.57,2.57,0,0,1,1.31-1,10.57,10.57,0,0,1,2.81-.63,43.41,43.41,0,0,1,4.78-.21,22.92,22.92,0,0,1,5.18.5,8.85,8.85,0,0,1,3,1.26,4.89,4.89,0,0,1,1.52,1.64,5.81,5.81,0,0,1,.59,1.65h38l-.05-.42a17,17,0,0,0-2.73-7.59,19.19,19.19,0,0,0-7.25-6.16,45.59,45.59,0,0,0-13.37-4.13,126.14,126.14,0,0,0-21.14-1.51"/><polygon class="cls-2" points="622.87 95.87 590.39 95.87 598.69 160.35 633.21 160.35 622.87 95.87"/><path class="cls-2" d="M670.78,142.24l-1.61-8.14h25a22.45,22.45,0,0,1,3.6.24,7.69,7.69,0,0,1,2.34.72,3.72,3.72,0,0,1,1.36,1.18,4.71,4.71,0,0,1,.67,1.64l0,.18a4.11,4.11,0,0,1,.09,1.7,2.21,2.21,0,0,1-.8,1.32,4.71,4.71,0,0,1-2,.85,16.68,16.68,0,0,1-3.51.3H670.78M666,117.95l-1.21-6.09h23.15a24.65,24.65,0,0,1,2.66.12,7.28,7.28,0,0,1,1.91.43,3,3,0,0,1,1.24.87,3.4,3.4,0,0,1,.66,1.45l0,.17a2.6,2.6,0,0,1,0,1.44,1.74,1.74,0,0,1-.84.94,5,5,0,0,1-1.71.51,18.06,18.06,0,0,1-2.62.16H666m33.24-22.07H629l10.73,64.48h74.6A49.43,49.43,0,0,0,728,158.73a18.56,18.56,0,0,0,8-4.34,11.52,11.52,0,0,0,3.31-6.29,17.38,17.38,0,0,0-.47-7.46l-.19-.71a22.32,22.32,0,0,0-3.41-7.42,20.8,20.8,0,0,0-5.15-5,26.35,26.35,0,0,0-6.22-3.11,37.29,37.29,0,0,0-6.61-1.63,18.55,18.55,0,0,0,4.43-1.55,12.09,12.09,0,0,0,3.5-2.6,8.37,8.37,0,0,0,2-3.67,9.69,9.69,0,0,0-.13-4.74l-.13-.5a15,15,0,0,0-2.38-5.09,16.44,16.44,0,0,0-4.92-4.42,27.35,27.35,0,0,0-8.2-3.11,56.48,56.48,0,0,0-12.23-1.18"/><polygon class="cls-2" points="763.56 95.87 731 95.87 748.15 160.35 829.77 160.35 821.62 136.47 775.65 136.47 763.56 95.87"/><polygon class="cls-2" points="889.94 95.87 813.08 95.87 835.41 160.35 917.48 160.35 909.46 141.35 862.3 141.35 860.16 135.68 906.18 135.68 898.75 118.03 853.49 118.03 851.64 113.12 897.21 113.12 889.94 95.87"/></svg>